<svg width="330" height="60" viewBox="0 0 330 60" fill="none" xmlns="http://www.w3.org/2000/svg">
<path d="M0.5 0.5H329.5V51.5C329.5 55.9183 325.918 59.5 321.5 59.5H8.50001C4.08173 59.5 0.5 55.9183 0.5 51.5V0.5Z" stroke="#D7D7D7"/>
<path d="M17.6985 35V24.0909H21.587C22.4357 24.0909 23.1388 24.2454 23.6964 24.5543C24.2539 24.8633 24.6712 25.2859 24.9482 25.8221C25.2251 26.3548 25.3636 26.9549 25.3636 27.6225C25.3636 28.2937 25.2234 28.8974 24.9428 29.4336C24.6658 29.9663 24.2468 30.3888 23.6857 30.7013C23.1282 31.0103 22.4268 31.1648 21.5817 31.1648H18.9077V29.7692H21.4325C21.9688 29.7692 22.4038 29.6768 22.7376 29.4922C23.0714 29.304 23.3164 29.0483 23.4727 28.7251C23.6289 28.402 23.707 28.0344 23.707 27.6225C23.707 27.2106 23.6289 26.8448 23.4727 26.5252C23.3164 26.2056 23.0696 25.9553 22.7322 25.7741C22.3984 25.593 21.9581 25.5025 21.4112 25.5025H19.3445V35H17.6985ZM29.1732 35.1811C28.6547 35.1811 28.186 35.0852 27.7669 34.8935C27.3479 34.6982 27.0159 34.4158 26.7708 34.0465C26.5294 33.6772 26.4086 33.2244 26.4086 32.6882C26.4086 32.2266 26.4974 31.8466 26.675 31.5483C26.8525 31.25 27.0922 31.0138 27.3941 30.8398C27.6959 30.6658 28.0333 30.5344 28.4061 30.4457C28.779 30.3569 29.159 30.2894 29.5461 30.2433C30.0361 30.1864 30.4338 30.1403 30.7392 30.1048C31.0446 30.0657 31.2666 30.0036 31.4051 29.9183C31.5436 29.8331 31.6128 29.6946 31.6128 29.5028V29.4656C31.6128 29.0004 31.4814 28.6399 31.2186 28.3842C30.9594 28.1286 30.5723 28.0007 30.0574 28.0007C29.5212 28.0007 29.0986 28.1197 28.7897 28.3576C28.4843 28.592 28.273 28.853 28.1558 29.1406L26.659 28.7997C26.8365 28.3026 27.0958 27.9013 27.4367 27.5959C27.7811 27.2869 28.1771 27.0632 28.6245 26.9247C29.072 26.7827 29.5425 26.7116 30.0361 26.7116C30.3628 26.7116 30.7091 26.7507 31.0748 26.8288C31.4441 26.9034 31.7886 27.0419 32.1082 27.2443C32.4314 27.4467 32.6959 27.7362 32.9019 28.1126C33.1078 28.4854 33.2108 28.9702 33.2108 29.5668V35H31.6554V33.8814H31.5915C31.4885 34.0874 31.3341 34.2898 31.1281 34.4886C30.9221 34.6875 30.6576 34.8526 30.3344 34.984C30.0113 35.1154 29.6242 35.1811 29.1732 35.1811ZM29.5194 33.9027C29.9598 33.9027 30.3362 33.8157 30.6487 33.6417C30.9647 33.4677 31.2044 33.2404 31.3678 32.9599C31.5347 32.6758 31.6181 32.3722 31.6181 32.049V30.9943C31.5613 31.0511 31.4512 31.1044 31.2879 31.1541C31.1281 31.2003 30.9452 31.2411 30.7392 31.2766C30.5333 31.3086 30.3326 31.3388 30.1373 31.3672C29.942 31.392 29.7787 31.4134 29.6473 31.4311C29.3383 31.4702 29.056 31.5359 28.8003 31.6282C28.5482 31.7205 28.3458 31.8537 28.1931 32.0277C28.0439 32.1982 27.9694 32.4254 27.9694 32.7095C27.9694 33.1037 28.115 33.402 28.4061 33.6044C28.6973 33.8033 29.0684 33.9027 29.5194 33.9027ZM41.1632 28.8157L39.7197 29.0714C39.6593 28.8867 39.5634 28.7109 39.432 28.544C39.3042 28.3771 39.1302 28.2404 38.91 28.1339C38.6899 28.0273 38.4146 27.9741 38.0844 27.9741C37.6334 27.9741 37.257 28.0753 36.9551 28.2777C36.6533 28.4766 36.5024 28.734 36.5024 29.0501C36.5024 29.3235 36.6036 29.5437 36.806 29.7106C37.0084 29.8775 37.3351 30.0142 37.7861 30.1207L39.0858 30.419C39.8387 30.593 40.3997 30.8612 40.7691 31.2234C41.1384 31.5856 41.323 32.0561 41.323 32.6349C41.323 33.125 41.181 33.5618 40.8969 33.9453C40.6164 34.3253 40.224 34.6236 39.7197 34.8402C39.219 35.0568 38.6384 35.1651 37.9779 35.1651C37.0617 35.1651 36.3142 34.9698 35.7353 34.5792C35.1565 34.185 34.8014 33.6257 34.67 32.9013L36.2094 32.6669C36.3053 33.0682 36.5024 33.3718 36.8007 33.5778C37.099 33.7802 37.4878 33.8814 37.9672 33.8814C38.4892 33.8814 38.9065 33.7731 39.219 33.5565C39.5315 33.3363 39.6877 33.0682 39.6877 32.7521C39.6877 32.4964 39.5918 32.2816 39.4001 32.1076C39.2119 31.9336 38.9225 31.8022 38.5318 31.7134L37.1469 31.4098C36.3834 31.2358 35.8188 30.9588 35.453 30.5788C35.0908 30.1989 34.9097 29.7177 34.9097 29.1353C34.9097 28.6523 35.0446 28.2298 35.3145 27.8675C35.5844 27.5053 35.9573 27.223 36.4331 27.0206C36.909 26.8146 37.4541 26.7116 38.0684 26.7116C38.9526 26.7116 39.6487 26.9034 40.1565 27.2869C40.6643 27.6669 40.9999 28.1765 41.1632 28.8157ZM48.9052 28.8157L47.4617 29.0714C47.4013 28.8867 47.3054 28.7109 47.174 28.544C47.0462 28.3771 46.8722 28.2404 46.652 28.1339C46.4319 28.0273 46.1566 27.9741 45.8264 27.9741C45.3754 27.9741 44.999 28.0753 44.6971 28.2777C44.3953 28.4766 44.2444 28.734 44.2444 29.0501C44.2444 29.3235 44.3456 29.5437 44.548 29.7106C44.7504 29.8775 45.0771 30.0142 45.5281 30.1207L46.8278 30.419C47.5806 30.593 48.1417 30.8612 48.511 31.2234C48.8804 31.5856 49.065 32.0561 49.065 32.6349C49.065 33.125 48.923 33.5618 48.6389 33.9453C48.3583 34.3253 47.9659 34.6236 47.4617 34.8402C46.961 35.0568 46.3804 35.1651 45.7199 35.1651C44.8037 35.1651 44.0561 34.9698 43.4773 34.5792C42.8985 34.185 42.5434 33.6257 42.412 32.9013L43.9514 32.6669C44.0473 33.0682 44.2444 33.3718 44.5426 33.5778C44.8409 33.7802 45.2298 33.8814 45.7092 33.8814C46.2312 33.8814 46.6485 33.7731 46.961 33.5565C47.2735 33.3363 47.4297 33.0682 47.4297 32.7521C47.4297 32.4964 47.3338 32.2816 47.1421 32.1076C46.9539 31.9336 46.6645 31.8022 46.2738 31.7134L44.8889 31.4098C44.1254 31.2358 43.5608 30.9588 43.195 30.5788C42.8328 30.1989 42.6517 29.7177 42.6517 29.1353C42.6517 28.6523 42.7866 28.2298 43.0565 27.8675C43.3264 27.5053 43.6993 27.223 44.1751 27.0206C44.651 26.8146 45.1961 26.7116 45.8104 26.7116C46.6946 26.7116 47.3907 26.9034 47.8985 27.2869C48.4063 27.6669 48.7419 28.1765 48.9052 28.8157ZM52.29 35L49.8823 26.8182H51.5282L53.1316 32.8267H53.2115L54.8202 26.8182H56.4661L58.0641 32.8001H58.144L59.7367 26.8182H61.3827L58.9803 35H57.3557L55.6937 29.0927H55.5712L53.9093 35H52.29ZM65.7915 35.1651C65.0244 35.1651 64.355 34.9893 63.7833 34.6378C63.2116 34.2862 62.7677 33.7944 62.4516 33.1623C62.1356 32.5302 61.9775 31.7915 61.9775 30.9464C61.9775 30.0977 62.1356 29.3555 62.4516 28.7198C62.7677 28.0842 63.2116 27.5906 63.7833 27.239C64.355 26.8874 65.0244 26.7116 65.7915 26.7116C66.5585 26.7116 67.2279 26.8874 67.7996 27.239C68.3714 27.5906 68.8153 28.0842 69.1313 28.7198C69.4474 29.3555 69.6054 30.0977 69.6054 30.9464C69.6054 31.7915 69.4474 32.5302 69.1313 33.1623C68.8153 33.7944 68.3714 34.2862 67.7996 34.6378C67.2279 34.9893 66.5585 35.1651 65.7915 35.1651ZM65.7968 33.8281C66.2939 33.8281 66.7059 33.6967 67.0326 33.4339C67.3593 33.1712 67.6008 32.8214 67.757 32.3846C67.9168 31.9478 67.9967 31.4666 67.9967 30.9411C67.9967 30.419 67.9168 29.9396 67.757 29.5028C67.6008 29.0625 67.3593 28.7092 67.0326 28.4428C66.7059 28.1765 66.2939 28.0433 65.7968 28.0433C65.2961 28.0433 64.8806 28.1765 64.5503 28.4428C64.2236 28.7092 63.9804 29.0625 63.8206 29.5028C63.6643 29.9396 63.5862 30.419 63.5862 30.9411C63.5862 31.4666 63.6643 31.9478 63.8206 32.3846C63.9804 32.8214 64.2236 33.1712 64.5503 33.4339C64.8806 33.6967 65.2961 33.8281 65.7968 33.8281ZM71.0832 35V26.8182H72.6226V28.1179H72.7078C72.857 27.6776 73.1197 27.3313 73.4962 27.0792C73.8761 26.8235 74.3058 26.6957 74.7852 26.6957C74.8847 26.6957 75.0018 26.6992 75.1368 26.7063C75.2753 26.7134 75.3836 26.7223 75.4617 26.733V28.2564C75.3978 28.2386 75.2842 28.2191 75.1208 28.1978C74.9575 28.1729 74.7941 28.1605 74.6308 28.1605C74.2543 28.1605 73.9188 28.2404 73.624 28.4002C73.3328 28.5565 73.102 28.7749 72.9315 29.0554C72.7611 29.3324 72.6759 29.6484 72.6759 30.0036V35H71.0832ZM79.3099 35.1598C78.6494 35.1598 78.0599 34.9911 77.5414 34.6538C77.0265 34.3129 76.6217 33.8281 76.3269 33.1996C76.0357 32.5675 75.8901 31.8093 75.8901 30.9251C75.8901 30.0408 76.0375 29.2844 76.3323 28.6559C76.6306 28.0273 77.0389 27.5462 77.5574 27.2124C78.0759 26.8786 78.6636 26.7116 79.3205 26.7116C79.8284 26.7116 80.2367 26.7969 80.5457 26.9673C80.8582 27.1342 81.0997 27.3295 81.2701 27.5533C81.4441 27.777 81.5791 27.9741 81.6749 28.1445H81.7708V24.0909H83.3635V35H81.8081V33.7269H81.6749C81.5791 33.9009 81.4406 34.0998 81.2595 34.3235C81.0819 34.5472 80.8369 34.7425 80.5244 34.9094C80.2119 35.0763 79.8071 35.1598 79.3099 35.1598ZM79.6615 33.8015C80.1196 33.8015 80.5066 33.6808 80.8227 33.4393C81.1423 33.1942 81.3838 32.8551 81.5471 32.4219C81.714 31.9886 81.7975 31.4844 81.7975 30.9091C81.7975 30.3409 81.7158 29.8437 81.5524 29.4176C81.3891 28.9915 81.1494 28.6594 80.8333 28.4215C80.5173 28.1836 80.1267 28.0646 79.6615 28.0646C79.1821 28.0646 78.7825 28.1889 78.4629 28.4375C78.1433 28.6861 77.9019 29.0252 77.7385 29.4549C77.5787 29.8846 77.4988 30.3693 77.4988 30.9091C77.4988 31.456 77.5805 31.9478 77.7438 32.3846C77.9072 32.8214 78.1487 33.1676 78.4683 33.4233C78.7914 33.6754 79.1892 33.8015 79.6615 33.8015Z" fill="#C0C0C0"/>
</svg>
