<svg width="330" height="118" viewBox="0 0 330 118" fill="none" xmlns="http://www.w3.org/2000/svg">
<path d="M0.5 8.5C0.5 4.08172 4.08172 0.5 8.5 0.5H321.5C325.918 0.5 329.5 4.08172 329.5 8.5V58.5H0.5V8.5Z" stroke="#D7D7D7"/>
<path d="M19.9517 34.6811C19.4332 34.6811 18.9645 34.5852 18.5455 34.3935C18.1264 34.1982 17.7944 33.9158 17.5494 33.5465C17.3079 33.1772 17.1871 32.7244 17.1871 32.1882C17.1871 31.7266 17.2759 31.3466 17.4535 31.0483C17.631 30.75 17.8707 30.5138 18.1726 30.3398C18.4744 30.1658 18.8118 30.0344 19.1847 29.9457C19.5575 29.8569 19.9375 29.7894 20.3246 29.7433C20.8146 29.6864 21.2124 29.6403 21.5178 29.6048C21.8232 29.5657 22.0451 29.5036 22.1836 29.4183C22.3221 29.3331 22.3913 29.1946 22.3913 29.0028V28.9656C22.3913 28.5004 22.2599 28.1399 21.9972 27.8842C21.7379 27.6286 21.3509 27.5007 20.8359 27.5007C20.2997 27.5007 19.8771 27.6197 19.5682 27.8576C19.2628 28.092 19.0515 28.353 18.9343 28.6406L17.4375 28.2997C17.6151 27.8026 17.8743 27.4013 18.2152 27.0959C18.5597 26.7869 18.9556 26.5632 19.4031 26.4247C19.8505 26.2827 20.321 26.2116 20.8146 26.2116C21.1413 26.2116 21.4876 26.2507 21.8533 26.3288C22.2227 26.4034 22.5671 26.5419 22.8867 26.7443C23.2099 26.9467 23.4744 27.2362 23.6804 27.6126C23.8864 27.9854 23.9893 28.4702 23.9893 29.0668V34.5H22.4339V33.3814H22.37C22.267 33.5874 22.1126 33.7898 21.9066 33.9886C21.7006 34.1875 21.4361 34.3526 21.1129 34.484C20.7898 34.6154 20.4027 34.6811 19.9517 34.6811ZM20.2979 33.4027C20.7383 33.4027 21.1147 33.3157 21.4272 33.1417C21.7433 32.9677 21.983 32.7404 22.1463 32.4599C22.3132 32.1758 22.3967 31.8722 22.3967 31.549V30.4943C22.3398 30.5511 22.2298 30.6044 22.0664 30.6541C21.9066 30.7003 21.7237 30.7411 21.5178 30.7766C21.3118 30.8086 21.1112 30.8388 20.9158 30.8672C20.7205 30.892 20.5572 30.9134 20.4258 30.9311C20.1168 30.9702 19.8345 31.0359 19.5788 31.1282C19.3267 31.2205 19.1243 31.3537 18.9716 31.5277C18.8224 31.6982 18.7479 31.9254 18.7479 32.2095C18.7479 32.6037 18.8935 32.902 19.1847 33.1044C19.4759 33.3033 19.8469 33.4027 20.2979 33.4027ZM27.4034 29.642V34.5H25.8107V26.3182H27.3395V27.6499H27.4407C27.6289 27.2166 27.9236 26.8686 28.3249 26.6058C28.7297 26.343 29.2393 26.2116 29.8537 26.2116C30.4112 26.2116 30.8995 26.3288 31.3185 26.5632C31.7376 26.794 32.0625 27.1385 32.2933 27.5966C32.5241 28.0547 32.6395 28.6211 32.6395 29.2958V34.5H31.0469V29.4876C31.0469 28.8945 30.8924 28.4311 30.5834 28.0973C30.2745 27.7599 29.8501 27.5913 29.3104 27.5913C28.941 27.5913 28.6126 27.6712 28.3249 27.831C28.0408 27.9908 27.8153 28.2251 27.6484 28.5341C27.4851 28.8395 27.4034 29.2088 27.4034 29.642ZM37.5384 34.6598C36.8779 34.6598 36.2884 34.4911 35.7699 34.1538C35.255 33.8129 34.8502 33.3281 34.5555 32.6996C34.2643 32.0675 34.1187 31.3093 34.1187 30.4251C34.1187 29.5408 34.266 28.7844 34.5608 28.1559C34.8591 27.5273 35.2675 27.0462 35.7859 26.7124C36.3044 26.3786 36.8921 26.2116 37.5491 26.2116C38.0569 26.2116 38.4653 26.2969 38.7742 26.4673C39.0867 26.6342 39.3282 26.8295 39.4986 27.0533C39.6726 27.277 39.8076 27.4741 39.9035 27.6445H39.9993V23.5909H41.592V34.5H40.0366V33.2269H39.9035C39.8076 33.4009 39.6691 33.5998 39.488 33.8235C39.3104 34.0472 39.0654 34.2425 38.7529 34.4094C38.4404 34.5763 38.0356 34.6598 37.5384 34.6598ZM37.89 33.3015C38.3481 33.3015 38.7351 33.1808 39.0512 32.9393C39.3708 32.6942 39.6123 32.3551 39.7756 31.9219C39.9425 31.4886 40.026 30.9844 40.026 30.4091C40.026 29.8409 39.9443 29.3437 39.7809 28.9176C39.6176 28.4915 39.3779 28.1594 39.0618 27.9215C38.7458 27.6836 38.3552 27.5646 37.89 27.5646C37.4106 27.5646 37.0111 27.6889 36.6915 27.9375C36.3719 28.1861 36.1304 28.5252 35.967 28.9549C35.8072 29.3846 35.7273 29.8693 35.7273 30.4091C35.7273 30.956 35.809 31.4478 35.9724 31.8846C36.1357 32.3214 36.3772 32.6676 36.6968 32.9233C37.0199 33.1754 37.4177 33.3015 37.89 33.3015ZM44.5719 37.5682C44.334 37.5682 44.1174 37.5487 43.9221 37.5096C43.7268 37.4741 43.5812 37.435 43.4853 37.3924L43.8688 36.0874C44.16 36.1655 44.4192 36.1992 44.6465 36.1886C44.8738 36.1779 45.0744 36.0927 45.2484 35.9329C45.426 35.7731 45.5822 35.5121 45.7172 35.1499L45.9143 34.6065L42.9207 26.3182H44.6252L46.6973 32.6676H46.7825L48.8546 26.3182H50.5645L47.1927 35.592C47.0364 36.0181 46.8376 36.3786 46.5961 36.6733C46.3546 36.9716 46.067 37.1953 45.7332 37.3445C45.3994 37.4936 45.0123 37.5682 44.5719 37.5682ZM58.3291 37.467C57.2283 37.467 56.2517 37.3161 55.3994 37.0142C54.5507 36.7159 53.8352 36.2756 53.2528 35.6932C52.6704 35.1143 52.2283 34.4041 51.9264 33.5625C51.6246 32.7209 51.4736 31.7603 51.4736 30.6808C51.4736 29.6296 51.6263 28.685 51.9317 27.8469C52.2371 27.0089 52.681 26.2951 53.2634 25.7056C53.8494 25.1126 54.5614 24.6598 55.3994 24.3473C56.2375 24.0348 57.1892 23.8786 58.2545 23.8786C59.2737 23.8786 60.1722 24.0384 60.9499 24.358C61.7276 24.6776 62.381 25.1161 62.9101 25.6737C63.4428 26.2312 63.844 26.8704 64.1139 27.5913C64.3838 28.3121 64.5187 29.0739 64.5187 29.8764C64.5187 30.4375 64.4832 30.9862 64.4122 31.5224C64.3412 32.055 64.2098 32.538 64.018 32.9712C63.8298 33.4009 63.5564 33.7454 63.1977 34.0046C62.8426 34.2603 62.381 34.3935 61.8128 34.4041C61.5109 34.4148 61.218 34.3793 60.9339 34.2976C60.6498 34.2159 60.4083 34.0845 60.2094 33.9034C60.0106 33.7188 59.8898 33.4844 59.8472 33.2003H59.7833C59.6981 33.4098 59.556 33.6051 59.3572 33.7862C59.1583 33.9638 58.9044 34.1058 58.5955 34.2124C58.2901 34.3153 57.9349 34.358 57.5301 34.3402C57.0827 34.3224 56.6796 34.2212 56.321 34.0366C55.9623 33.8519 55.6551 33.5962 55.3994 33.2695C55.1473 32.9428 54.9538 32.5558 54.8188 32.1083C54.6839 31.6609 54.6164 31.1637 54.6164 30.6168C54.6164 30.0913 54.6928 29.6207 54.8455 29.2053C54.9982 28.7862 55.2059 28.4258 55.4687 28.1239C55.735 27.8185 56.0404 27.5771 56.3849 27.3995C56.7293 27.2219 57.0933 27.1101 57.4768 27.0639C57.8497 27.0213 58.1924 27.032 58.5049 27.0959C58.8174 27.1598 59.0766 27.2575 59.2826 27.3888C59.4921 27.5202 59.6235 27.6641 59.6768 27.8203H59.746V27.2237H61.0564V32.1669C61.0564 32.4474 61.1292 32.6854 61.2748 32.8807C61.4239 33.076 61.6352 33.1737 61.9087 33.1737C62.2318 33.1737 62.4839 33.0547 62.6651 32.8168C62.8497 32.5788 62.9793 32.2131 63.0539 31.7195C63.132 31.2259 63.1711 30.5937 63.1711 29.8232C63.1711 29.2834 63.0983 28.7756 62.9527 28.2997C62.8107 27.8203 62.5994 27.3871 62.3188 27C62.0418 26.6094 61.7009 26.2738 61.2961 25.9933C60.8913 25.7127 60.4296 25.4961 59.9112 25.3434C59.3962 25.1907 58.8263 25.1143 58.2013 25.1143C57.3526 25.1143 56.5979 25.2457 55.9374 25.5085C55.2769 25.7678 54.7194 26.1424 54.2648 26.6325C53.8138 27.1225 53.4712 27.7102 53.2368 28.3956C53.006 29.0774 52.8906 29.8427 52.8906 30.6914C52.8906 31.5756 53.0095 32.3604 53.2474 33.0458C53.4854 33.7276 53.8369 34.3029 54.3021 34.7717C54.7673 35.2404 55.3426 35.5955 56.028 35.837C56.7134 36.082 57.5035 36.2045 58.3984 36.2045C58.7961 36.2045 59.1867 36.169 59.5702 36.098C59.9538 36.0305 60.2947 35.9524 60.593 35.8636C60.8948 35.7784 61.1203 35.7092 61.2695 35.6559L61.6423 36.8224C61.4222 36.9254 61.1292 37.0266 60.7634 37.1261C60.4012 37.2255 60.007 37.3072 59.5809 37.3711C59.1583 37.435 58.7411 37.467 58.3291 37.467ZM57.8391 33.0352C58.3007 33.0352 58.6718 32.9428 58.9523 32.7582C59.2364 32.5735 59.4406 32.2983 59.5649 31.9325C59.6928 31.5632 59.7567 31.1016 59.7567 30.5476C59.7531 30.0078 59.6839 29.5781 59.5489 29.2585C59.4175 28.9354 59.2116 28.7045 58.931 28.5661C58.654 28.424 58.2972 28.353 57.8604 28.353C57.4591 28.353 57.1164 28.4506 56.8323 28.646C56.5518 28.8413 56.3369 29.1058 56.1878 29.4396C56.0422 29.7734 55.9676 30.1445 55.9641 30.5529C55.9676 30.9826 56.028 31.3874 56.1452 31.7674C56.2659 32.1438 56.4612 32.4492 56.7311 32.6836C57.0045 32.918 57.3739 33.0352 57.8391 33.0352ZM69.4083 37.7386C68.7584 37.7386 68.1991 37.6534 67.7304 37.483C67.2652 37.3125 66.8852 37.087 66.5905 36.8065C66.2957 36.5259 66.0756 36.2188 65.93 35.8849L67.2989 35.3203C67.3948 35.4766 67.5226 35.6417 67.6824 35.8157C67.8458 35.9933 68.066 36.1442 68.343 36.2685C68.6235 36.3928 68.9839 36.4549 69.4243 36.4549C70.028 36.4549 70.5269 36.3075 70.9211 36.0128C71.3153 35.7216 71.5123 35.2564 71.5123 34.6172V33.0085H71.4111C71.3153 33.1825 71.1768 33.3761 70.9957 33.5891C70.8181 33.8022 70.5731 33.9869 70.2606 34.1431C69.9481 34.2994 69.5415 34.3775 69.0407 34.3775C68.3944 34.3775 67.8121 34.2266 67.2936 33.9247C66.7787 33.6193 66.3703 33.1701 66.0684 32.5771C65.7702 31.9805 65.621 31.2472 65.621 30.3771C65.621 29.5071 65.7684 28.7614 66.0631 28.1399C66.3614 27.5185 66.7698 27.0426 67.2883 26.7124C67.8067 26.3786 68.3944 26.2116 69.0514 26.2116C69.5592 26.2116 69.9694 26.2969 70.2819 26.4673C70.5944 26.6342 70.8376 26.8295 71.0116 27.0533C71.1892 27.277 71.3259 27.4741 71.4218 27.6445H71.539V26.3182H73.0997V34.6811C73.0997 35.3842 72.9363 35.9613 72.6096 36.4123C72.2829 36.8633 71.8408 37.1971 71.2833 37.4137C70.7293 37.6303 70.1043 37.7386 69.4083 37.7386ZM69.3923 33.0565C69.8504 33.0565 70.2375 32.9499 70.5535 32.7369C70.8731 32.5202 71.1146 32.2113 71.278 31.81C71.4449 31.4052 71.5283 30.9205 71.5283 30.3558C71.5283 29.8054 71.4466 29.3207 71.2833 28.9016C71.1199 28.4826 70.8802 28.1559 70.5642 27.9215C70.2481 27.6836 69.8575 27.5646 69.3923 27.5646C68.9129 27.5646 68.5134 27.6889 68.1938 27.9375C67.8742 28.1825 67.6327 28.5163 67.4694 28.9389C67.3096 29.3615 67.2297 29.8338 67.2297 30.3558C67.2297 30.892 67.3113 31.3626 67.4747 31.7674C67.6381 32.1722 67.8795 32.4883 68.1991 32.7156C68.5223 32.9428 68.92 33.0565 69.3923 33.0565ZM74.9357 34.5V26.3182H76.4645V27.6499H76.5657C76.7361 27.1989 77.0149 26.8473 77.402 26.5952C77.789 26.3395 78.2525 26.2116 78.7922 26.2116C79.3391 26.2116 79.7972 26.3395 80.1665 26.5952C80.5394 26.8509 80.8146 27.2024 80.9922 27.6499H81.0774C81.2727 27.2131 81.5834 26.8651 82.0096 26.6058C82.4357 26.343 82.9435 26.2116 83.533 26.2116C84.2752 26.2116 84.8807 26.4442 85.3494 26.9094C85.8217 27.3746 86.0579 28.076 86.0579 29.0135V34.5H84.4652V29.1626C84.4652 28.6087 84.3143 28.2074 84.0124 27.9588C83.7106 27.7102 83.3501 27.5859 82.9311 27.5859C82.4126 27.5859 82.0096 27.7457 81.7219 28.0653C81.4343 28.3814 81.2905 28.788 81.2905 29.2852V34.5H79.7031V29.0614C79.7031 28.6175 79.5646 28.2607 79.2876 27.9908C79.0106 27.7209 78.6502 27.5859 78.2063 27.5859C77.9045 27.5859 77.6257 27.6658 77.37 27.8256C77.1179 27.9819 76.9137 28.2003 76.7574 28.4808C76.6047 28.7614 76.5284 29.0863 76.5284 29.4556V34.5H74.9357ZM90.2736 34.6811C89.7551 34.6811 89.2864 34.5852 88.8673 34.3935C88.4483 34.1982 88.1163 33.9158 87.8712 33.5465C87.6298 33.1772 87.509 32.7244 87.509 32.1882C87.509 31.7266 87.5978 31.3466 87.7754 31.0483C87.9529 30.75 88.1926 30.5138 88.4945 30.3398C88.7963 30.1658 89.1337 30.0344 89.5065 29.9457C89.8794 29.8569 90.2594 29.7894 90.6465 29.7433C91.1365 29.6864 91.5342 29.6403 91.8396 29.6048C92.145 29.5657 92.367 29.5036 92.5055 29.4183C92.644 29.3331 92.7132 29.1946 92.7132 29.0028V28.9656C92.7132 28.5004 92.5818 28.1399 92.319 27.8842C92.0598 27.6286 91.6727 27.5007 91.1578 27.5007C90.6216 27.5007 90.199 27.6197 89.8901 27.8576C89.5847 28.092 89.3734 28.353 89.2562 28.6406L87.7594 28.2997C87.9369 27.8026 88.1962 27.4013 88.5371 27.0959C88.8815 26.7869 89.2775 26.5632 89.7249 26.4247C90.1724 26.2827 90.6429 26.2116 91.1365 26.2116C91.4632 26.2116 91.8094 26.2507 92.1752 26.3288C92.5445 26.4034 92.889 26.5419 93.2086 26.7443C93.5317 26.9467 93.7963 27.2362 94.0023 27.6126C94.2082 27.9854 94.3112 28.4702 94.3112 29.0668V34.5H92.7558V33.3814H92.6919C92.5889 33.5874 92.4344 33.7898 92.2285 33.9886C92.0225 34.1875 91.758 34.3526 91.4348 34.484C91.1116 34.6154 90.7246 34.6811 90.2736 34.6811ZM90.6198 33.4027C91.0602 33.4027 91.4366 33.3157 91.7491 33.1417C92.0651 32.9677 92.3048 32.7404 92.4682 32.4599C92.6351 32.1758 92.7185 31.8722 92.7185 31.549V30.4943C92.6617 30.5511 92.5516 30.6044 92.3883 30.6541C92.2285 30.7003 92.0456 30.7411 91.8396 30.7766C91.6337 30.8086 91.433 30.8388 91.2377 30.8672C91.0424 30.892 90.879 30.9134 90.7477 30.9311C90.4387 30.9702 90.1564 31.0359 89.9007 31.1282C89.6486 31.2205 89.4462 31.3537 89.2935 31.5277C89.1443 31.6982 89.0697 31.9254 89.0697 32.2095C89.0697 32.6037 89.2153 32.902 89.5065 33.1044C89.7977 33.3033 90.1688 33.4027 90.6198 33.4027ZM96.1326 34.5V26.3182H97.7253V34.5H96.1326ZM96.9369 25.0558C96.6599 25.0558 96.422 24.9634 96.2231 24.7788C96.0278 24.5906 95.9302 24.3668 95.9302 24.1076C95.9302 23.8448 96.0278 23.6211 96.2231 23.4364C96.422 23.2482 96.6599 23.1541 96.9369 23.1541C97.2139 23.1541 97.4501 23.2482 97.6454 23.4364C97.8442 23.6211 97.9437 23.8448 97.9437 24.1076C97.9437 24.3668 97.8442 24.5906 97.6454 24.7788C97.4501 24.9634 97.2139 25.0558 96.9369 25.0558ZM101.161 23.5909V34.5H99.5679V23.5909H101.161ZM104.053 34.6012C103.761 34.6012 103.511 34.4982 103.302 34.2923C103.092 34.0827 102.987 33.8306 102.987 33.5359C102.987 33.2447 103.092 32.9961 103.302 32.7901C103.511 32.5806 103.761 32.4759 104.053 32.4759C104.344 32.4759 104.594 32.5806 104.804 32.7901C105.013 32.9961 105.118 33.2447 105.118 33.5359C105.118 33.7312 105.068 33.9105 104.969 34.0739C104.873 34.2337 104.745 34.3615 104.585 34.4574C104.426 34.5533 104.248 34.6012 104.053 34.6012ZM110.398 34.6651C109.606 34.6651 108.924 34.4858 108.352 34.1271C107.784 33.7649 107.347 33.266 107.042 32.6303C106.736 31.9947 106.584 31.2667 106.584 30.4464C106.584 29.6154 106.74 28.8821 107.053 28.2464C107.365 27.6072 107.805 27.1083 108.374 26.7496C108.942 26.391 109.611 26.2116 110.382 26.2116C111.003 26.2116 111.557 26.3271 112.044 26.5579C112.53 26.7852 112.923 27.1048 113.221 27.5167C113.523 27.9286 113.702 28.4098 113.759 28.9602H112.209C112.124 28.5767 111.928 28.2464 111.623 27.9695C111.321 27.6925 110.916 27.554 110.408 27.554C109.964 27.554 109.576 27.6712 109.242 27.9055C108.912 28.1364 108.654 28.4666 108.469 28.8963C108.285 29.3224 108.192 29.8267 108.192 30.4091C108.192 31.0057 108.283 31.5206 108.464 31.9538C108.645 32.3871 108.901 32.7227 109.231 32.9606C109.565 33.1985 109.957 33.3175 110.408 33.3175C110.71 33.3175 110.984 33.2624 111.229 33.1523C111.477 33.0387 111.685 32.8771 111.852 32.6676C112.022 32.4581 112.141 32.206 112.209 31.9112H113.759C113.702 32.4403 113.53 32.9126 113.242 33.3281C112.955 33.7436 112.569 34.0703 112.086 34.3082C111.607 34.5462 111.044 34.6651 110.398 34.6651ZM118.608 34.6651C117.841 34.6651 117.172 34.4893 116.6 34.1378C116.029 33.7862 115.585 33.2944 115.269 32.6623C114.953 32.0302 114.795 31.2915 114.795 30.4464C114.795 29.5977 114.953 28.8555 115.269 28.2198C115.585 27.5842 116.029 27.0906 116.6 26.739C117.172 26.3874 117.841 26.2116 118.608 26.2116C119.375 26.2116 120.045 26.3874 120.617 26.739C121.188 27.0906 121.632 27.5842 121.948 28.2198C122.264 28.8555 122.422 29.5977 122.422 30.4464C122.422 31.2915 122.264 32.0302 121.948 32.6623C121.632 33.2944 121.188 33.7862 120.617 34.1378C120.045 34.4893 119.375 34.6651 118.608 34.6651ZM118.614 33.3281C119.111 33.3281 119.523 33.1967 119.85 32.9339C120.176 32.6712 120.418 32.3214 120.574 31.8846C120.734 31.4478 120.814 30.9666 120.814 30.4411C120.814 29.919 120.734 29.4396 120.574 29.0028C120.418 28.5625 120.176 28.2092 119.85 27.9428C119.523 27.6765 119.111 27.5433 118.614 27.5433C118.113 27.5433 117.698 27.6765 117.367 27.9428C117.041 28.2092 116.797 28.5625 116.638 29.0028C116.481 29.4396 116.403 29.919 116.403 30.4411C116.403 30.9666 116.481 31.4478 116.638 31.8846C116.797 32.3214 117.041 32.6712 117.367 32.9339C117.698 33.1967 118.113 33.3281 118.614 33.3281ZM123.9 34.5V26.3182H125.429V27.6499H125.53C125.701 27.1989 125.979 26.8473 126.366 26.5952C126.753 26.3395 127.217 26.2116 127.757 26.2116C128.304 26.2116 128.762 26.3395 129.131 26.5952C129.504 26.8509 129.779 27.2024 129.957 27.6499H130.042C130.237 27.2131 130.548 26.8651 130.974 26.6058C131.4 26.343 131.908 26.2116 132.497 26.2116C133.24 26.2116 133.845 26.4442 134.314 26.9094C134.786 27.3746 135.022 28.076 135.022 29.0135V34.5H133.43V29.1626C133.43 28.6087 133.279 28.2074 132.977 27.9588C132.675 27.7102 132.315 27.5859 131.896 27.5859C131.377 27.5859 130.974 27.7457 130.686 28.0653C130.399 28.3814 130.255 28.788 130.255 29.2852V34.5H128.668V29.0614C128.668 28.6175 128.529 28.2607 128.252 27.9908C127.975 27.7209 127.615 27.5859 127.171 27.5859C126.869 27.5859 126.59 27.6658 126.334 27.8256C126.082 27.9819 125.878 28.2003 125.722 28.4808C125.569 28.7614 125.493 29.0863 125.493 29.4556V34.5H123.9Z" fill="#363341"/>
<path d="M0.5 58.5H329.5V109.5C329.5 113.918 325.918 117.5 321.5 117.5H8.50001C4.08173 117.5 0.5 113.918 0.5 109.5V58.5Z" stroke="#D7D7D7"/>
<path d="M17.6985 93V82.0909H21.587C22.4357 82.0909 23.1388 82.2454 23.6964 82.5543C24.2539 82.8633 24.6712 83.2859 24.9482 83.8221C25.2251 84.3548 25.3636 84.9549 25.3636 85.6225C25.3636 86.2937 25.2234 86.8974 24.9428 87.4336C24.6658 87.9663 24.2468 88.3888 23.6857 88.7013C23.1282 89.0103 22.4268 89.1648 21.5817 89.1648H18.9077V87.7692H21.4325C21.9688 87.7692 22.4038 87.6768 22.7376 87.4922C23.0714 87.304 23.3164 87.0483 23.4727 86.7251C23.6289 86.402 23.707 86.0344 23.707 85.6225C23.707 85.2106 23.6289 84.8448 23.4727 84.5252C23.3164 84.2056 23.0696 83.9553 22.7322 83.7741C22.3984 83.593 21.9581 83.5025 21.4112 83.5025H19.3445V93H17.6985ZM29.1732 93.1811C28.6547 93.1811 28.186 93.0852 27.7669 92.8935C27.3479 92.6982 27.0159 92.4158 26.7708 92.0465C26.5294 91.6772 26.4086 91.2244 26.4086 90.6882C26.4086 90.2266 26.4974 89.8466 26.675 89.5483C26.8525 89.25 27.0922 89.0138 27.3941 88.8398C27.6959 88.6658 28.0333 88.5344 28.4061 88.4457C28.779 88.3569 29.159 88.2894 29.5461 88.2433C30.0361 88.1864 30.4338 88.1403 30.7392 88.1048C31.0446 88.0657 31.2666 88.0036 31.4051 87.9183C31.5436 87.8331 31.6128 87.6946 31.6128 87.5028V87.4656C31.6128 87.0004 31.4814 86.6399 31.2186 86.3842C30.9594 86.1286 30.5723 86.0007 30.0574 86.0007C29.5212 86.0007 29.0986 86.1197 28.7897 86.3576C28.4843 86.592 28.273 86.853 28.1558 87.1406L26.659 86.7997C26.8365 86.3026 27.0958 85.9013 27.4367 85.5959C27.7811 85.2869 28.1771 85.0632 28.6245 84.9247C29.072 84.7827 29.5425 84.7116 30.0361 84.7116C30.3628 84.7116 30.7091 84.7507 31.0748 84.8288C31.4441 84.9034 31.7886 85.0419 32.1082 85.2443C32.4314 85.4467 32.6959 85.7362 32.9019 86.1126C33.1078 86.4854 33.2108 86.9702 33.2108 87.5668V93H31.6554V91.8814H31.5915C31.4885 92.0874 31.3341 92.2898 31.1281 92.4886C30.9221 92.6875 30.6576 92.8526 30.3344 92.984C30.0113 93.1154 29.6242 93.1811 29.1732 93.1811ZM29.5194 91.9027C29.9598 91.9027 30.3362 91.8157 30.6487 91.6417C30.9647 91.4677 31.2044 91.2404 31.3678 90.9599C31.5347 90.6758 31.6181 90.3722 31.6181 90.049V88.9943C31.5613 89.0511 31.4512 89.1044 31.2879 89.1541C31.1281 89.2003 30.9452 89.2411 30.7392 89.2766C30.5333 89.3086 30.3326 89.3388 30.1373 89.3672C29.942 89.392 29.7787 89.4134 29.6473 89.4311C29.3383 89.4702 29.056 89.5359 28.8003 89.6282C28.5482 89.7205 28.3458 89.8537 28.1931 90.0277C28.0439 90.1982 27.9694 90.4254 27.9694 90.7095C27.9694 91.1037 28.115 91.402 28.4061 91.6044C28.6973 91.8033 29.0684 91.9027 29.5194 91.9027ZM41.1632 86.8157L39.7197 87.0714C39.6593 86.8867 39.5634 86.7109 39.432 86.544C39.3042 86.3771 39.1302 86.2404 38.91 86.1339C38.6899 86.0273 38.4146 85.9741 38.0844 85.9741C37.6334 85.9741 37.257 86.0753 36.9551 86.2777C36.6533 86.4766 36.5024 86.734 36.5024 87.0501C36.5024 87.3235 36.6036 87.5437 36.806 87.7106C37.0084 87.8775 37.3351 88.0142 37.7861 88.1207L39.0858 88.419C39.8387 88.593 40.3997 88.8612 40.7691 89.2234C41.1384 89.5856 41.323 90.0561 41.323 90.6349C41.323 91.125 41.181 91.5618 40.8969 91.9453C40.6164 92.3253 40.224 92.6236 39.7197 92.8402C39.219 93.0568 38.6384 93.1651 37.9779 93.1651C37.0617 93.1651 36.3142 92.9698 35.7353 92.5792C35.1565 92.185 34.8014 91.6257 34.67 90.9013L36.2094 90.6669C36.3053 91.0682 36.5024 91.3718 36.8007 91.5778C37.099 91.7802 37.4878 91.8814 37.9672 91.8814C38.4892 91.8814 38.9065 91.7731 39.219 91.5565C39.5315 91.3363 39.6877 91.0682 39.6877 90.7521C39.6877 90.4964 39.5918 90.2816 39.4001 90.1076C39.2119 89.9336 38.9225 89.8022 38.5318 89.7134L37.1469 89.4098C36.3834 89.2358 35.8188 88.9588 35.453 88.5788C35.0908 88.1989 34.9097 87.7177 34.9097 87.1353C34.9097 86.6523 35.0446 86.2298 35.3145 85.8675C35.5844 85.5053 35.9573 85.223 36.4331 85.0206C36.909 84.8146 37.4541 84.7116 38.0684 84.7116C38.9526 84.7116 39.6487 84.9034 40.1565 85.2869C40.6643 85.6669 40.9999 86.1765 41.1632 86.8157ZM48.9052 86.8157L47.4617 87.0714C47.4013 86.8867 47.3054 86.7109 47.174 86.544C47.0462 86.3771 46.8722 86.2404 46.652 86.1339C46.4319 86.0273 46.1566 85.9741 45.8264 85.9741C45.3754 85.9741 44.999 86.0753 44.6971 86.2777C44.3953 86.4766 44.2444 86.734 44.2444 87.0501C44.2444 87.3235 44.3456 87.5437 44.548 87.7106C44.7504 87.8775 45.0771 88.0142 45.5281 88.1207L46.8278 88.419C47.5806 88.593 48.1417 88.8612 48.511 89.2234C48.8804 89.5856 49.065 90.0561 49.065 90.6349C49.065 91.125 48.923 91.5618 48.6389 91.9453C48.3583 92.3253 47.9659 92.6236 47.4617 92.8402C46.961 93.0568 46.3804 93.1651 45.7199 93.1651C44.8037 93.1651 44.0561 92.9698 43.4773 92.5792C42.8985 92.185 42.5434 91.6257 42.412 90.9013L43.9514 90.6669C44.0473 91.0682 44.2444 91.3718 44.5426 91.5778C44.8409 91.7802 45.2298 91.8814 45.7092 91.8814C46.2312 91.8814 46.6485 91.7731 46.961 91.5565C47.2735 91.3363 47.4297 91.0682 47.4297 90.7521C47.4297 90.4964 47.3338 90.2816 47.1421 90.1076C46.9539 89.9336 46.6645 89.8022 46.2738 89.7134L44.8889 89.4098C44.1254 89.2358 43.5608 88.9588 43.195 88.5788C42.8328 88.1989 42.6517 87.7177 42.6517 87.1353C42.6517 86.6523 42.7866 86.2298 43.0565 85.8675C43.3264 85.5053 43.6993 85.223 44.1751 85.0206C44.651 84.8146 45.1961 84.7116 45.8104 84.7116C46.6946 84.7116 47.3907 84.9034 47.8985 85.2869C48.4063 85.6669 48.7419 86.1765 48.9052 86.8157ZM52.29 93L49.8823 84.8182H51.5282L53.1316 90.8267H53.2115L54.8202 84.8182H56.4661L58.0641 90.8001H58.144L59.7367 84.8182H61.3827L58.9803 93H57.3557L55.6937 87.0927H55.5712L53.9093 93H52.29ZM65.7915 93.1651C65.0244 93.1651 64.355 92.9893 63.7833 92.6378C63.2116 92.2862 62.7677 91.7944 62.4516 91.1623C62.1356 90.5302 61.9775 89.7915 61.9775 88.9464C61.9775 88.0977 62.1356 87.3555 62.4516 86.7198C62.7677 86.0842 63.2116 85.5906 63.7833 85.239C64.355 84.8874 65.0244 84.7116 65.7915 84.7116C66.5585 84.7116 67.2279 84.8874 67.7996 85.239C68.3714 85.5906 68.8153 86.0842 69.1313 86.7198C69.4474 87.3555 69.6054 88.0977 69.6054 88.9464C69.6054 89.7915 69.4474 90.5302 69.1313 91.1623C68.8153 91.7944 68.3714 92.2862 67.7996 92.6378C67.2279 92.9893 66.5585 93.1651 65.7915 93.1651ZM65.7968 91.8281C66.2939 91.8281 66.7059 91.6967 67.0326 91.4339C67.3593 91.1712 67.6008 90.8214 67.757 90.3846C67.9168 89.9478 67.9967 89.4666 67.9967 88.9411C67.9967 88.419 67.9168 87.9396 67.757 87.5028C67.6008 87.0625 67.3593 86.7092 67.0326 86.4428C66.7059 86.1765 66.2939 86.0433 65.7968 86.0433C65.2961 86.0433 64.8806 86.1765 64.5503 86.4428C64.2236 86.7092 63.9804 87.0625 63.8206 87.5028C63.6643 87.9396 63.5862 88.419 63.5862 88.9411C63.5862 89.4666 63.6643 89.9478 63.8206 90.3846C63.9804 90.8214 64.2236 91.1712 64.5503 91.4339C64.8806 91.6967 65.2961 91.8281 65.7968 91.8281ZM71.0832 93V84.8182H72.6226V86.1179H72.7078C72.857 85.6776 73.1197 85.3313 73.4962 85.0792C73.8761 84.8235 74.3058 84.6957 74.7852 84.6957C74.8847 84.6957 75.0018 84.6992 75.1368 84.7063C75.2753 84.7134 75.3836 84.7223 75.4617 84.733V86.2564C75.3978 86.2386 75.2842 86.2191 75.1208 86.1978C74.9575 86.1729 74.7941 86.1605 74.6308 86.1605C74.2543 86.1605 73.9188 86.2404 73.624 86.4002C73.3328 86.5565 73.102 86.7749 72.9315 87.0554C72.7611 87.3324 72.6759 87.6484 72.6759 88.0036V93H71.0832ZM79.3099 93.1598C78.6494 93.1598 78.0599 92.9911 77.5414 92.6538C77.0265 92.3129 76.6217 91.8281 76.3269 91.1996C76.0357 90.5675 75.8901 89.8093 75.8901 88.9251C75.8901 88.0408 76.0375 87.2844 76.3323 86.6559C76.6306 86.0273 77.0389 85.5462 77.5574 85.2124C78.0759 84.8786 78.6636 84.7116 79.3205 84.7116C79.8284 84.7116 80.2367 84.7969 80.5457 84.9673C80.8582 85.1342 81.0997 85.3295 81.2701 85.5533C81.4441 85.777 81.5791 85.9741 81.6749 86.1445H81.7708V82.0909H83.3635V93H81.8081V91.7269H81.6749C81.5791 91.9009 81.4406 92.0998 81.2595 92.3235C81.0819 92.5472 80.8369 92.7425 80.5244 92.9094C80.2119 93.0763 79.8071 93.1598 79.3099 93.1598ZM79.6615 91.8015C80.1196 91.8015 80.5066 91.6808 80.8227 91.4393C81.1423 91.1942 81.3838 90.8551 81.5471 90.4219C81.714 89.9886 81.7975 89.4844 81.7975 88.9091C81.7975 88.3409 81.7158 87.8437 81.5524 87.4176C81.3891 86.9915 81.1494 86.6594 80.8333 86.4215C80.5173 86.1836 80.1267 86.0646 79.6615 86.0646C79.1821 86.0646 78.7825 86.1889 78.4629 86.4375C78.1433 86.6861 77.9019 87.0252 77.7385 87.4549C77.5787 87.8846 77.4988 88.3693 77.4988 88.9091C77.4988 89.456 77.5805 89.9478 77.7438 90.3846C77.9072 90.8214 78.1487 91.1676 78.4683 91.4233C78.7914 91.6754 79.1892 91.8015 79.6615 91.8015Z" fill="#C0C0C0"/>
</svg>
