<svg width="330" height="59" viewBox="0 0 330 59" fill="none" xmlns="http://www.w3.org/2000/svg">
<path d="M0.5 8.5C0.5 4.08172 4.08172 0.5 8.5 0.5H321.5C325.918 0.5 329.5 4.08172 329.5 8.5V58.5H0.5V8.5Z" stroke="#D7D7D7"/>
<path d="M19.9517 34.6811C19.4332 34.6811 18.9645 34.5852 18.5455 34.3935C18.1264 34.1982 17.7944 33.9158 17.5494 33.5465C17.3079 33.1772 17.1871 32.7244 17.1871 32.1882C17.1871 31.7266 17.2759 31.3466 17.4535 31.0483C17.631 30.75 17.8707 30.5138 18.1726 30.3398C18.4744 30.1658 18.8118 30.0344 19.1847 29.9457C19.5575 29.8569 19.9375 29.7894 20.3246 29.7433C20.8146 29.6864 21.2124 29.6403 21.5178 29.6048C21.8232 29.5657 22.0451 29.5036 22.1836 29.4183C22.3221 29.3331 22.3913 29.1946 22.3913 29.0028V28.9656C22.3913 28.5004 22.2599 28.1399 21.9972 27.8842C21.7379 27.6286 21.3509 27.5007 20.8359 27.5007C20.2997 27.5007 19.8771 27.6197 19.5682 27.8576C19.2628 28.092 19.0515 28.353 18.9343 28.6406L17.4375 28.2997C17.6151 27.8026 17.8743 27.4013 18.2152 27.0959C18.5597 26.7869 18.9556 26.5632 19.4031 26.4247C19.8505 26.2827 20.321 26.2116 20.8146 26.2116C21.1413 26.2116 21.4876 26.2507 21.8533 26.3288C22.2227 26.4034 22.5671 26.5419 22.8867 26.7443C23.2099 26.9467 23.4744 27.2362 23.6804 27.6126C23.8864 27.9854 23.9893 28.4702 23.9893 29.0668V34.5H22.4339V33.3814H22.37C22.267 33.5874 22.1126 33.7898 21.9066 33.9886C21.7006 34.1875 21.4361 34.3526 21.1129 34.484C20.7898 34.6154 20.4027 34.6811 19.9517 34.6811ZM20.2979 33.4027C20.7383 33.4027 21.1147 33.3157 21.4272 33.1417C21.7433 32.9677 21.983 32.7404 22.1463 32.4599C22.3132 32.1758 22.3967 31.8722 22.3967 31.549V30.4943C22.3398 30.5511 22.2298 30.6044 22.0664 30.6541C21.9066 30.7003 21.7237 30.7411 21.5178 30.7766C21.3118 30.8086 21.1112 30.8388 20.9158 30.8672C20.7205 30.892 20.5572 30.9134 20.4258 30.9311C20.1168 30.9702 19.8345 31.0359 19.5788 31.1282C19.3267 31.2205 19.1243 31.3537 18.9716 31.5277C18.8224 31.6982 18.7479 31.9254 18.7479 32.2095C18.7479 32.6037 18.8935 32.902 19.1847 33.1044C19.4759 33.3033 19.8469 33.4027 20.2979 33.4027ZM27.4034 29.642V34.5H25.8107V26.3182H27.3395V27.6499H27.4407C27.6289 27.2166 27.9236 26.8686 28.3249 26.6058C28.7297 26.343 29.2393 26.2116 29.8537 26.2116C30.4112 26.2116 30.8995 26.3288 31.3185 26.5632C31.7376 26.794 32.0625 27.1385 32.2933 27.5966C32.5241 28.0547 32.6395 28.6211 32.6395 29.2958V34.5H31.0469V29.4876C31.0469 28.8945 30.8924 28.4311 30.5834 28.0973C30.2745 27.7599 29.8501 27.5913 29.3104 27.5913C28.941 27.5913 28.6126 27.6712 28.3249 27.831C28.0408 27.9908 27.8153 28.2251 27.6484 28.5341C27.4851 28.8395 27.4034 29.2088 27.4034 29.642ZM37.5384 34.6598C36.8779 34.6598 36.2884 34.4911 35.7699 34.1538C35.255 33.8129 34.8502 33.3281 34.5555 32.6996C34.2643 32.0675 34.1187 31.3093 34.1187 30.4251C34.1187 29.5408 34.266 28.7844 34.5608 28.1559C34.8591 27.5273 35.2675 27.0462 35.7859 26.7124C36.3044 26.3786 36.8921 26.2116 37.5491 26.2116C38.0569 26.2116 38.4653 26.2969 38.7742 26.4673C39.0867 26.6342 39.3282 26.8295 39.4986 27.0533C39.6726 27.277 39.8076 27.4741 39.9035 27.6445H39.9993V23.5909H41.592V34.5H40.0366V33.2269H39.9035C39.8076 33.4009 39.6691 33.5998 39.488 33.8235C39.3104 34.0472 39.0654 34.2425 38.7529 34.4094C38.4404 34.5763 38.0356 34.6598 37.5384 34.6598ZM37.89 33.3015C38.3481 33.3015 38.7351 33.1808 39.0512 32.9393C39.3708 32.6942 39.6123 32.3551 39.7756 31.9219C39.9425 31.4886 40.026 30.9844 40.026 30.4091C40.026 29.8409 39.9443 29.3437 39.7809 28.9176C39.6176 28.4915 39.3779 28.1594 39.0618 27.9215C38.7458 27.6836 38.3552 27.5646 37.89 27.5646C37.4106 27.5646 37.0111 27.6889 36.6915 27.9375C36.3719 28.1861 36.1304 28.5252 35.967 28.9549C35.8072 29.3846 35.7273 29.8693 35.7273 30.4091C35.7273 30.956 35.809 31.4478 35.9724 31.8846C36.1357 32.3214 36.3772 32.6676 36.6968 32.9233C37.0199 33.1754 37.4177 33.3015 37.89 33.3015ZM44.5719 37.5682C44.334 37.5682 44.1174 37.5487 43.9221 37.5096C43.7268 37.4741 43.5812 37.435 43.4853 37.3924L43.8688 36.0874C44.16 36.1655 44.4192 36.1992 44.6465 36.1886C44.8738 36.1779 45.0744 36.0927 45.2484 35.9329C45.426 35.7731 45.5822 35.5121 45.7172 35.1499L45.9143 34.6065L42.9207 26.3182H44.6252L46.6973 32.6676H46.7825L48.8546 26.3182H50.5645L47.1927 35.592C47.0364 36.0181 46.8376 36.3786 46.5961 36.6733C46.3546 36.9716 46.067 37.1953 45.7332 37.3445C45.3994 37.4936 45.0123 37.5682 44.5719 37.5682ZM58.3291 37.467C57.2283 37.467 56.2517 37.3161 55.3994 37.0142C54.5507 36.7159 53.8352 36.2756 53.2528 35.6932C52.6704 35.1143 52.2283 34.4041 51.9264 33.5625C51.6246 32.7209 51.4736 31.7603 51.4736 30.6808C51.4736 29.6296 51.6263 28.685 51.9317 27.8469C52.2371 27.0089 52.681 26.2951 53.2634 25.7056C53.8494 25.1126 54.5614 24.6598 55.3994 24.3473C56.2375 24.0348 57.1892 23.8786 58.2545 23.8786C59.2737 23.8786 60.1722 24.0384 60.9499 24.358C61.7276 24.6776 62.381 25.1161 62.9101 25.6737C63.4428 26.2312 63.844 26.8704 64.1139 27.5913C64.3838 28.3121 64.5187 29.0739 64.5187 29.8764C64.5187 30.4375 64.4832 30.9862 64.4122 31.5224C64.3412 32.055 64.2098 32.538 64.018 32.9712C63.8298 33.4009 63.5564 33.7454 63.1977 34.0046C62.8426 34.2603 62.381 34.3935 61.8128 34.4041C61.5109 34.4148 61.218 34.3793 60.9339 34.2976C60.6498 34.2159 60.4083 34.0845 60.2094 33.9034C60.0106 33.7188 59.8898 33.4844 59.8472 33.2003H59.7833C59.6981 33.4098 59.556 33.6051 59.3572 33.7862C59.1583 33.9638 58.9044 34.1058 58.5955 34.2124C58.2901 34.3153 57.9349 34.358 57.5301 34.3402C57.0827 34.3224 56.6796 34.2212 56.321 34.0366C55.9623 33.8519 55.6551 33.5962 55.3994 33.2695C55.1473 32.9428 54.9538 32.5558 54.8188 32.1083C54.6839 31.6609 54.6164 31.1637 54.6164 30.6168C54.6164 30.0913 54.6928 29.6207 54.8455 29.2053C54.9982 28.7862 55.2059 28.4258 55.4687 28.1239C55.735 27.8185 56.0404 27.5771 56.3849 27.3995C56.7293 27.2219 57.0933 27.1101 57.4768 27.0639C57.8497 27.0213 58.1924 27.032 58.5049 27.0959C58.8174 27.1598 59.0766 27.2575 59.2826 27.3888C59.4921 27.5202 59.6235 27.6641 59.6768 27.8203H59.746V27.2237H61.0564V32.1669C61.0564 32.4474 61.1292 32.6854 61.2748 32.8807C61.4239 33.076 61.6352 33.1737 61.9087 33.1737C62.2318 33.1737 62.4839 33.0547 62.6651 32.8168C62.8497 32.5788 62.9793 32.2131 63.0539 31.7195C63.132 31.2259 63.1711 30.5937 63.1711 29.8232C63.1711 29.2834 63.0983 28.7756 62.9527 28.2997C62.8107 27.8203 62.5994 27.3871 62.3188 27C62.0418 26.6094 61.7009 26.2738 61.2961 25.9933C60.8913 25.7127 60.4296 25.4961 59.9112 25.3434C59.3962 25.1907 58.8263 25.1143 58.2013 25.1143C57.3526 25.1143 56.5979 25.2457 55.9374 25.5085C55.2769 25.7678 54.7194 26.1424 54.2648 26.6325C53.8138 27.1225 53.4712 27.7102 53.2368 28.3956C53.006 29.0774 52.8906 29.8427 52.8906 30.6914C52.8906 31.5756 53.0095 32.3604 53.2474 33.0458C53.4854 33.7276 53.8369 34.3029 54.3021 34.7717C54.7673 35.2404 55.3426 35.5955 56.028 35.837C56.7134 36.082 57.5035 36.2045 58.3984 36.2045C58.7961 36.2045 59.1867 36.169 59.5702 36.098C59.9538 36.0305 60.2947 35.9524 60.593 35.8636C60.8948 35.7784 61.1203 35.7092 61.2695 35.6559L61.6423 36.8224C61.4222 36.9254 61.1292 37.0266 60.7634 37.1261C60.4012 37.2255 60.007 37.3072 59.5809 37.3711C59.1583 37.435 58.7411 37.467 58.3291 37.467ZM57.8391 33.0352C58.3007 33.0352 58.6718 32.9428 58.9523 32.7582C59.2364 32.5735 59.4406 32.2983 59.5649 31.9325C59.6928 31.5632 59.7567 31.1016 59.7567 30.5476C59.7531 30.0078 59.6839 29.5781 59.5489 29.2585C59.4175 28.9354 59.2116 28.7045 58.931 28.5661C58.654 28.424 58.2972 28.353 57.8604 28.353C57.4591 28.353 57.1164 28.4506 56.8323 28.646C56.5518 28.8413 56.3369 29.1058 56.1878 29.4396C56.0422 29.7734 55.9676 30.1445 55.9641 30.5529C55.9676 30.9826 56.028 31.3874 56.1452 31.7674C56.2659 32.1438 56.4612 32.4492 56.7311 32.6836C57.0045 32.918 57.3739 33.0352 57.8391 33.0352ZM69.4083 37.7386C68.7584 37.7386 68.1991 37.6534 67.7304 37.483C67.2652 37.3125 66.8852 37.087 66.5905 36.8065C66.2957 36.5259 66.0756 36.2188 65.93 35.8849L67.2989 35.3203C67.3948 35.4766 67.5226 35.6417 67.6824 35.8157C67.8458 35.9933 68.066 36.1442 68.343 36.2685C68.6235 36.3928 68.9839 36.4549 69.4243 36.4549C70.028 36.4549 70.5269 36.3075 70.9211 36.0128C71.3153 35.7216 71.5123 35.2564 71.5123 34.6172V33.0085H71.4111C71.3153 33.1825 71.1768 33.3761 70.9957 33.5891C70.8181 33.8022 70.5731 33.9869 70.2606 34.1431C69.9481 34.2994 69.5415 34.3775 69.0407 34.3775C68.3944 34.3775 67.8121 34.2266 67.2936 33.9247C66.7787 33.6193 66.3703 33.1701 66.0684 32.5771C65.7702 31.9805 65.621 31.2472 65.621 30.3771C65.621 29.5071 65.7684 28.7614 66.0631 28.1399C66.3614 27.5185 66.7698 27.0426 67.2883 26.7124C67.8067 26.3786 68.3944 26.2116 69.0514 26.2116C69.5592 26.2116 69.9694 26.2969 70.2819 26.4673C70.5944 26.6342 70.8376 26.8295 71.0116 27.0533C71.1892 27.277 71.3259 27.4741 71.4218 27.6445H71.539V26.3182H73.0997V34.6811C73.0997 35.3842 72.9363 35.9613 72.6096 36.4123C72.2829 36.8633 71.8408 37.1971 71.2833 37.4137C70.7293 37.6303 70.1043 37.7386 69.4083 37.7386ZM69.3923 33.0565C69.8504 33.0565 70.2375 32.9499 70.5535 32.7369C70.8731 32.5202 71.1146 32.2113 71.278 31.81C71.4449 31.4052 71.5283 30.9205 71.5283 30.3558C71.5283 29.8054 71.4466 29.3207 71.2833 28.9016C71.1199 28.4826 70.8802 28.1559 70.5642 27.9215C70.2481 27.6836 69.8575 27.5646 69.3923 27.5646C68.9129 27.5646 68.5134 27.6889 68.1938 27.9375C67.8742 28.1825 67.6327 28.5163 67.4694 28.9389C67.3096 29.3615 67.2297 29.8338 67.2297 30.3558C67.2297 30.892 67.3113 31.3626 67.4747 31.7674C67.6381 32.1722 67.8795 32.4883 68.1991 32.7156C68.5223 32.9428 68.92 33.0565 69.3923 33.0565ZM74.9357 34.5V26.3182H76.4645V27.6499H76.5657C76.7361 27.1989 77.0149 26.8473 77.402 26.5952C77.789 26.3395 78.2525 26.2116 78.7922 26.2116C79.3391 26.2116 79.7972 26.3395 80.1665 26.5952C80.5394 26.8509 80.8146 27.2024 80.9922 27.6499H81.0774C81.2727 27.2131 81.5834 26.8651 82.0096 26.6058C82.4357 26.343 82.9435 26.2116 83.533 26.2116C84.2752 26.2116 84.8807 26.4442 85.3494 26.9094C85.8217 27.3746 86.0579 28.076 86.0579 29.0135V34.5H84.4652V29.1626C84.4652 28.6087 84.3143 28.2074 84.0124 27.9588C83.7106 27.7102 83.3501 27.5859 82.9311 27.5859C82.4126 27.5859 82.0096 27.7457 81.7219 28.0653C81.4343 28.3814 81.2905 28.788 81.2905 29.2852V34.5H79.7031V29.0614C79.7031 28.6175 79.5646 28.2607 79.2876 27.9908C79.0106 27.7209 78.6502 27.5859 78.2063 27.5859C77.9045 27.5859 77.6257 27.6658 77.37 27.8256C77.1179 27.9819 76.9137 28.2003 76.7574 28.4808C76.6047 28.7614 76.5284 29.0863 76.5284 29.4556V34.5H74.9357ZM90.2736 34.6811C89.7551 34.6811 89.2864 34.5852 88.8673 34.3935C88.4483 34.1982 88.1163 33.9158 87.8712 33.5465C87.6298 33.1772 87.509 32.7244 87.509 32.1882C87.509 31.7266 87.5978 31.3466 87.7754 31.0483C87.9529 30.75 88.1926 30.5138 88.4945 30.3398C88.7963 30.1658 89.1337 30.0344 89.5065 29.9457C89.8794 29.8569 90.2594 29.7894 90.6465 29.7433C91.1365 29.6864 91.5342 29.6403 91.8396 29.6048C92.145 29.5657 92.367 29.5036 92.5055 29.4183C92.644 29.3331 92.7132 29.1946 92.7132 29.0028V28.9656C92.7132 28.5004 92.5818 28.1399 92.319 27.8842C92.0598 27.6286 91.6727 27.5007 91.1578 27.5007C90.6216 27.5007 90.199 27.6197 89.8901 27.8576C89.5847 28.092 89.3734 28.353 89.2562 28.6406L87.7594 28.2997C87.9369 27.8026 88.1962 27.4013 88.5371 27.0959C88.8815 26.7869 89.2775 26.5632 89.7249 26.4247C90.1724 26.2827 90.6429 26.2116 91.1365 26.2116C91.4632 26.2116 91.8094 26.2507 92.1752 26.3288C92.5445 26.4034 92.889 26.5419 93.2086 26.7443C93.5317 26.9467 93.7963 27.2362 94.0023 27.6126C94.2082 27.9854 94.3112 28.4702 94.3112 29.0668V34.5H92.7558V33.3814H92.6919C92.5889 33.5874 92.4344 33.7898 92.2285 33.9886C92.0225 34.1875 91.758 34.3526 91.4348 34.484C91.1116 34.6154 90.7246 34.6811 90.2736 34.6811ZM90.6198 33.4027C91.0602 33.4027 91.4366 33.3157 91.7491 33.1417C92.0651 32.9677 92.3048 32.7404 92.4682 32.4599C92.6351 32.1758 92.7185 31.8722 92.7185 31.549V30.4943C92.6617 30.5511 92.5516 30.6044 92.3883 30.6541C92.2285 30.7003 92.0456 30.7411 91.8396 30.7766C91.6337 30.8086 91.433 30.8388 91.2377 30.8672C91.0424 30.892 90.879 30.9134 90.7477 30.9311C90.4387 30.9702 90.1564 31.0359 89.9007 31.1282C89.6486 31.2205 89.4462 31.3537 89.2935 31.5277C89.1443 31.6982 89.0697 31.9254 89.0697 32.2095C89.0697 32.6037 89.2153 32.902 89.5065 33.1044C89.7977 33.3033 90.1688 33.4027 90.6198 33.4027ZM96.1326 34.5V26.3182H97.7253V34.5H96.1326ZM96.9369 25.0558C96.6599 25.0558 96.422 24.9634 96.2231 24.7788C96.0278 24.5906 95.9302 24.3668 95.9302 24.1076C95.9302 23.8448 96.0278 23.6211 96.2231 23.4364C96.422 23.2482 96.6599 23.1541 96.9369 23.1541C97.2139 23.1541 97.4501 23.2482 97.6454 23.4364C97.8442 23.6211 97.9437 23.8448 97.9437 24.1076C97.9437 24.3668 97.8442 24.5906 97.6454 24.7788C97.4501 24.9634 97.2139 25.0558 96.9369 25.0558ZM101.161 23.5909V34.5H99.5679V23.5909H101.161ZM104.053 34.6012C103.761 34.6012 103.511 34.4982 103.302 34.2923C103.092 34.0827 102.987 33.8306 102.987 33.5359C102.987 33.2447 103.092 32.9961 103.302 32.7901C103.511 32.5806 103.761 32.4759 104.053 32.4759C104.344 32.4759 104.594 32.5806 104.804 32.7901C105.013 32.9961 105.118 33.2447 105.118 33.5359C105.118 33.7312 105.068 33.9105 104.969 34.0739C104.873 34.2337 104.745 34.3615 104.585 34.4574C104.426 34.5533 104.248 34.6012 104.053 34.6012ZM110.398 34.6651C109.606 34.6651 108.924 34.4858 108.352 34.1271C107.784 33.7649 107.347 33.266 107.042 32.6303C106.736 31.9947 106.584 31.2667 106.584 30.4464C106.584 29.6154 106.74 28.8821 107.053 28.2464C107.365 27.6072 107.805 27.1083 108.374 26.7496C108.942 26.391 109.611 26.2116 110.382 26.2116C111.003 26.2116 111.557 26.3271 112.044 26.5579C112.53 26.7852 112.923 27.1048 113.221 27.5167C113.523 27.9286 113.702 28.4098 113.759 28.9602H112.209C112.124 28.5767 111.928 28.2464 111.623 27.9695C111.321 27.6925 110.916 27.554 110.408 27.554C109.964 27.554 109.576 27.6712 109.242 27.9055C108.912 28.1364 108.654 28.4666 108.469 28.8963C108.285 29.3224 108.192 29.8267 108.192 30.4091C108.192 31.0057 108.283 31.5206 108.464 31.9538C108.645 32.3871 108.901 32.7227 109.231 32.9606C109.565 33.1985 109.957 33.3175 110.408 33.3175C110.71 33.3175 110.984 33.2624 111.229 33.1523C111.477 33.0387 111.685 32.8771 111.852 32.6676C112.022 32.4581 112.141 32.206 112.209 31.9112H113.759C113.702 32.4403 113.53 32.9126 113.242 33.3281C112.955 33.7436 112.569 34.0703 112.086 34.3082C111.607 34.5462 111.044 34.6651 110.398 34.6651ZM118.608 34.6651C117.841 34.6651 117.172 34.4893 116.6 34.1378C116.029 33.7862 115.585 33.2944 115.269 32.6623C114.953 32.0302 114.795 31.2915 114.795 30.4464C114.795 29.5977 114.953 28.8555 115.269 28.2198C115.585 27.5842 116.029 27.0906 116.6 26.739C117.172 26.3874 117.841 26.2116 118.608 26.2116C119.375 26.2116 120.045 26.3874 120.617 26.739C121.188 27.0906 121.632 27.5842 121.948 28.2198C122.264 28.8555 122.422 29.5977 122.422 30.4464C122.422 31.2915 122.264 32.0302 121.948 32.6623C121.632 33.2944 121.188 33.7862 120.617 34.1378C120.045 34.4893 119.375 34.6651 118.608 34.6651ZM118.614 33.3281C119.111 33.3281 119.523 33.1967 119.85 32.9339C120.176 32.6712 120.418 32.3214 120.574 31.8846C120.734 31.4478 120.814 30.9666 120.814 30.4411C120.814 29.919 120.734 29.4396 120.574 29.0028C120.418 28.5625 120.176 28.2092 119.85 27.9428C119.523 27.6765 119.111 27.5433 118.614 27.5433C118.113 27.5433 117.698 27.6765 117.367 27.9428C117.041 28.2092 116.797 28.5625 116.638 29.0028C116.481 29.4396 116.403 29.919 116.403 30.4411C116.403 30.9666 116.481 31.4478 116.638 31.8846C116.797 32.3214 117.041 32.6712 117.367 32.9339C117.698 33.1967 118.113 33.3281 118.614 33.3281ZM123.9 34.5V26.3182H125.429V27.6499H125.53C125.701 27.1989 125.979 26.8473 126.366 26.5952C126.753 26.3395 127.217 26.2116 127.757 26.2116C128.304 26.2116 128.762 26.3395 129.131 26.5952C129.504 26.8509 129.779 27.2024 129.957 27.6499H130.042C130.237 27.2131 130.548 26.8651 130.974 26.6058C131.4 26.343 131.908 26.2116 132.497 26.2116C133.24 26.2116 133.845 26.4442 134.314 26.9094C134.786 27.3746 135.022 28.076 135.022 29.0135V34.5H133.43V29.1626C133.43 28.6087 133.279 28.2074 132.977 27.9588C132.675 27.7102 132.315 27.5859 131.896 27.5859C131.377 27.5859 130.974 27.7457 130.686 28.0653C130.399 28.3814 130.255 28.788 130.255 29.2852V34.5H128.668V29.0614C128.668 28.6175 128.529 28.2607 128.252 27.9908C127.975 27.7209 127.615 27.5859 127.171 27.5859C126.869 27.5859 126.59 27.6658 126.334 27.8256C126.082 27.9819 125.878 28.2003 125.722 28.4808C125.569 28.7614 125.493 29.0863 125.493 29.4556V34.5H123.9Z" fill="#363341"/>
</svg>
